#!OML:ASF H:\Male1\Project 1\Capture day 1\Session 1\Male1.ASF
:FULLY-SPECIFIED
:DEGREES
144
root -1.77478 14.5177 4.68661 124.948 -85.2304 -125.726
lowerback 22.3795 2.71854 -1.60262
upperback 15.9093 1.60259 -1.67301
thorax 5.04588 0.0947307 -1.24162
lowerneck -1.65851 5.31293 9.70198
upperneck 11.0303 6.83131 -4.15708
head 4.05606 3.4996 -2.55051
rclavicle 6.36111e-015 -2.38542e-015
rhumerus -26.1137 9.48674 -87.3109
rradius 54.3738
rwrist -30.5799
rhand -16.5507 0.657152
rfingers 7.12502
rthumb 9.66885 -29.1009
lclavicle 6.36111e-015 -2.38542e-015
lhumerus 1.72391 -13.9965 78.2364
lradius 34.7413
lwrist 4.04402
lhand -22.6439 16.4461
lfingers 7.12502
lthumb 3.78699 46.3922
rfemur -19.4441 4.28263 29.5051
rtibia 61.3213
rfoot -17.8739 -13.8459
rtoes -27.0309
lfemur -35.619 -8.80163 -10.2411
ltibia 34.8236
lfoot -4.22587 15.6865
ltoes -0.55376
145
root -1.93466 14.488 4.74877 133.017 -84.8863 -133.309
lowerback 23.582 2.89188 -2.07284
upperback 16.2867 1.57716 -1.98221
thorax 4.90502 0.0121075 -1.33651
lowerneck -1.5095 5.52289 9.74363
upperneck 10.069 7.14648 -4.30741
head 3.76766 3.64743 -2.5981
rclavicle -1.59028e-015 -1.74931e-014
rhumerus -25.893 9.28753 -87.4849
rradius 54.8979
rwrist -30.6926
rhand -16.9607 0.681602
rfingers 7.12502
rthumb 9.27323 -29.0945
lclavicle -1.59028e-015 -1.74931e-014
lhumerus 3.88436 -14.2811 77.3604
lradius 34.3658
lwrist 3.37223
lhand -22.501 17.0332
lfingers 7.12502
lthumb 3.92497 46.9767
rfemur -22.7662 3.75203 29.0051
rtibia 65.6329
rfoot -15.3946 -13.3534
rtoes -26.2194
lfemur -36.5432 -6.86544 -11.0365
ltibia 36.8159
lfoot -3.87463 14.8248
ltoes -2.9084
146
root -2.08906 14.4585 4.80975 139.283 -84.4665 -139.016
lowerback 24.7795 3.05443 -2.47401
upperback 16.6569 1.53281 -2.26675
thorax 4.77219 -0.0761052 -1.44129
lowerneck -1.31552 5.723 9.75302
upperneck 9.07204 7.4529 -4.47984
head 3.46162 3.78998 -2.65154
rclavicle 1.19271e-014 3.02153e-014
rhumerus -25.6775 9.11976 -87.685
rradius 55.3522
rwrist -30.7493
rhand -17.2764 0.768554
rfingers 7.12502
rthumb 8.96865 -29.0208
lclavicle 1.19271e-014 3.02153e-014
lhumerus 6.22514 -14.6466 76.4043
lradius 33.8967
lwrist 2.57988
lhand -22.5056 17.4678
lfingers 7.12502
lthumb 3.92055 47.4115
rfemur -26.159 3.12803 28.6454
rtibia 69.2881
rfoot -13.6935 -13.3648
rtoes -25.2036
lfemur -37.6389 -4.91926 -11.7645
ltibia 38.8784
lfoot -4.07569 13.9366
ltoes -5.54965
147
root -2.23847 14.4264 4.86834 143.523 -83.977 -142.628
lowerback 25.9722 3.20776 -2.76168
upperback 17.0158 1.48529 -2.5036
thorax 4.64282 -0.158633 -1.55809
lowerneck -1.13145 5.90443 9.7686
upperneck 7.83972 7.70469 -4.44868
head 3.41479 3.92744 -2.94084
rclavicle 1.74931e-014 4.21423e-014
rhumerus -25.4799 8.97292 -87.9029
rradius 55.7376
rwrist -30.7683
rhand -17.5236 0.927286
rfingers 7.12502
rthumb 8.73008 -28.8722
lclavicle 1.74931e-014 4.21423e-014
lhumerus 8.73813 -15.0668 75.3828
lradius 33.2977
lwrist 1.64034
lhand -22.8291 17.6253
lfingers 7.12502
lthumb 3.6081 47.5745
rfemur -29.4738 2.47498 28.5302
rtibia 72.0111
rfoot -13.0039 -13.993
rtoes -24.545
lfemur -38.8486 -3.02306 -12.3588
ltibia 40.9544
lfoot -4.56197 12.9804
ltoes -7.55767
148
root -2.38243 14.3926 4.92403 146.109 -83.4639 -144.499
lowerback 27.1616 3.34843 -2.95615
upperback 17.3555 1.43277 -2.68721
thorax 4.50532 -0.23731 -1.66816
lowerneck -0.810843 6.05081 9.78385
upperneck 6.7645 7.95206 -4.69382
head 3.01627 4.03899 -3.03111
rclavicle -2.06736e-014 2.94201e-014
rhumerus -25.2976 8.88812 -88.1185
rradius 56.0437
rwrist -30.7693
rhand -17.7444 1.10653
rfingers 7.12502
rthumb 8.51701 -28.7017
lclavicle -2.06736e-014 2.94201e-014
lhumerus 11.4051 -15.4865 74.3095
lradius 32.5684
lwrist 0.574897
lhand -23.1869 17.7526
lfingers 7.12502
lthumb 3.26265 47.7073
rfemur -32.65 1.84511 28.6657
rtibia 73.6684
rfoot -13.1879 -15.1646
rtoes -24.1438
lfemur -40.1692 -1.25632 -12.8152
ltibia 43.0153
lfoot -5.32766 11.9617
ltoes -8.80138
149
root -2.52121 14.3564 4.97681 147.55 -82.969 -145.115
lowerback 28.3358 3.4888 -3.03315
upperback 17.6913 1.39964 -2.84204
thorax 4.38487 -0.296397 -1.81734
lowerneck -0.619448 6.14761 9.8195
upperneck 5.76313 8.11175 -4.86202
head 2.66279 4.10968 -3.10089
rclavicle 0 -1.03368e-014
rhumerus -25.0864 8.78943 -88.3305
rradius 56.2632
rwrist -30.7739
rhand -17.9565 1.20778
rfingers 7.12502
rthumb 8.31232 -28.6087
lclavicle 0 -1.03368e-014
lhumerus 14.2878 -15.9736 73.1352
lradius 31.742
lwrist -0.533127
lhand -23.5817 17.8803
lfingers 7.12502
lthumb 2.8813 47.8406
rfemur -35.6935 1.28697 29.0128
rtibia 74.2584
rfoot -13.9997 -16.6658
rtoes -24.0108
lfemur -41.6376 0.311922 -13.1499
ltibia 45.0651
lfoot -6.26792 11.0613
ltoes -9.7282
150
root -2.6556 14.3185 5.02672 148.167 -82.514 -144.762
lowerback 29.4691 3.61263 -3.00772
upperback 18.0229 1.36961 -2.97479
thorax 4.29189 -0.343944 -2.00061
lowerneck -0.496535 6.21586 9.9293
upperneck 4.71404 8.22413 -5.04932
head 2.31176 4.15724 -3.1935
rclavicle -4.77083e-015 -3.97569e-014
rhumerus -24.8221 8.71404 -88.5349
rradius 56.4017
rwrist -30.7884
rhand -18.1438 1.19336
rfingers 7.12502
rthumb 8.13156 -28.6302
lclavicle -4.77083e-015 -3.97569e-014
lhumerus 17.3556 -16.4437 71.8712
lradius 30.8762
lwrist -1.66141
lhand -23.9699 18.0924
lfingers 7.12502
lthumb 2.5064 48.0574
rfemur -38.6453 0.8292 29.5322
rtibia 73.8948
rfoot -15.1687 -18.2171
rtoes -23.968
lfemur -43.2767 1.6483 -13.3742
ltibia 47.0688
lfoot -7.27183 10.2934
ltoes -10.0875
151
root -2.78721 14.2779 5.07389 148.37 -82.1138 -143.831
lowerback 30.838 3.71806 -2.97917
upperback 18.3175 1.32144 -3.12515
thorax 3.91373 -0.401281 -2.08083
lowerneck -0.371616 6.27375 10.0036
upperneck 3.60687 8.32111 -5.23917
head 1.94187 4.1957 -3.28377
rclavicle 4.13472e-014 7.23576e-014
rhumerus -24.5387 8.76522 -88.704
rradius 56.4829
rwrist -30.8165
rhand -18.2825 1.08983
rfingers 7.12502
rthumb 7.99769 -28.7389
lclavicle 4.13472e-014 7.23576e-014
lhumerus 20.4804 -16.7585 70.6117
lradius 30.0321
lwrist -2.82163
lhand -24.3024 18.4034
lfingers 7.12502
lthumb 2.18534 48.3719
rfemur -41.5307 0.476197 30.1628
rtibia 72.7116
rfoot -16.4094 -19.6306
rtoes -24.0075
lfemur -45.1143 2.7667 -13.5383
ltibia 49.0499
lfoot -8.28485 9.6562
ltoes -10.0412
152
root -2.88397 14.2226 5.10147 145.172 -82.4424 -139.733
lowerback 32.9423 3.59796 -2.94745
upperback 18.4857 0.936238 -3.06111
thorax 3.31287 -0.629991 -1.95889
lowerneck -0.240638 6.34074 10.0033
upperneck 2.46555 8.4288 -5.43069
head 1.5604 4.2383 -3.36348
rclavicle -2.06736e-014 2.78299e-014
rhumerus -24.2603 8.9539 -88.8388
rradius 56.5412
rwrist -30.8439
rhand -18.3266 0.93076
rfingers 7.12502
rthumb 7.95515 -28.8995
lclavicle -2.06736e-014 2.78299e-014
lhumerus 23.5805 -16.8748 69.3993
lradius 29.26
lwrist -4.00698
lhand -24.5582 18.7805
lfingers 7.12502
lthumb 1.93828 48.7515
rfemur -44.0811 -0.449893 30.8957
rtibia 70.9547
rfoot -17.8177 -20.9279
rtoes -24.0198
lfemur -46.9686 3.32946 -13.793
ltibia 50.9552
lfoot -9.00751 8.73474
ltoes -10.2099
